<?xml version="1.0" encoding="iso-8859-1"?>
<!-- Generator: Adobe Illustrator 18.1.1, SVG Export Plug-In . SVG Version: 6.00 Build 0)  -->
<svg version="1.1" id="Capa_1" xmlns="http://www.w3.org/2000/svg" xmlns:xlink="http://www.w3.org/1999/xlink" x="0px" y="0px"
	 viewBox="0 0 358.012 358.012" style="enable-background:new 0 0 358.012 358.012;" xml:space="preserve">
<g>
	<path style="fill:#010002;" d="M179.006,0C80.141,0,0,80.141,0,179.006s80.141,179.006,179.006,179.006
		s179.006-80.141,179.006-179.006S277.871,0,179.006,0z M243.896,265.084c0,35.777-29.112,64.89-64.89,64.89
		c-33.922,0-61.805-26.177-64.615-59.382h-0.28V67.163c0-25.98,21.135-47.114,47.114-47.114s47.114,21.135,47.114,47.114v154.751
		h-0.209c-1.08,16.379-14.607,29.417-31.26,29.417c-17.352,0-31.469-14.118-31.469-31.469v-90.458h11.934v90.452
		c0,10.776,8.765,19.536,19.536,19.536c10.77,0,19.53-8.765,19.53-19.536V67.163c0-19.398-15.782-35.181-35.181-35.181
		s-35.181,15.782-35.181,35.181v197.921c0,29.202,23.754,52.956,52.956,52.956s52.956-23.754,52.956-52.956V129.404h11.934v135.681
		H243.896z"/>
</g>
<g>
</g>
<g>
</g>
<g>
</g>
<g>
</g>
<g>
</g>
<g>
</g>
<g>
</g>
<g>
</g>
<g>
</g>
<g>
</g>
<g>
</g>
<g>
</g>
<g>
</g>
<g>
</g>
<g>
</g>
</svg>
